<svg xmlns="http://www.w3.org/2000/svg" viewBox="0 0 1200 750" role="img" aria-label="博客上线夜晚插画">
  <rect width="1200" height="750" fill="#eef3ef"/>
  <rect y="505" width="1200" height="245" fill="#314f47"/>
  <circle cx="990" cy="140" r="78" fill="#f0bd66"/>
  <path d="M0 448 C160 405 255 428 390 390 C545 346 650 360 790 323 C930 287 1045 298 1200 255 V505 H0 Z" fill="#9ab7a8"/>
  <path d="M0 493 C165 454 280 467 418 434 C565 399 662 407 815 375 C960 345 1070 350 1200 320 V505 H0 Z" fill="#5e8575"/>
  <rect x="225" y="220" width="575" height="345" rx="16" fill="#273238"/>
  <rect x="255" y="252" width="515" height="275" rx="8" fill="#fbf7ef"/>
  <rect x="293" y="294" width="215" height="18" rx="9" fill="#c65b4a" opacity=".75"/>
  <rect x="293" y="340" width="385" height="14" rx="7" fill="#2f615d" opacity=".45"/>
  <rect x="293" y="376" width="335" height="14" rx="7" fill="#2f615d" opacity=".35"/>
  <rect x="293" y="412" width="405" height="14" rx="7" fill="#2f615d" opacity=".28"/>
  <rect x="293" y="463" width="125" height="28" rx="14" fill="#e6b866"/>
  <rect x="440" y="463" width="96" height="28" rx="14" fill="#d88b6f"/>
  <path d="M345 565 H680" stroke="#1f2a2d" stroke-width="18" stroke-linecap="round"/>
  <rect x="852" y="340" width="130" height="165" rx="12" fill="#f7f0df"/>
  <path d="M884 386 h68 M884 430 h50" stroke="#2f615d" stroke-width="13" stroke-linecap="round" opacity=".45"/>
  <path d="M952 505 c28 -35 53 -35 74 0" fill="none" stroke="#e6b866" stroke-width="16" stroke-linecap="round"/>
  <path d="M166 585 c54 -62 92 -62 146 0" fill="none" stroke="#f4dca3" stroke-width="18" stroke-linecap="round"/>
</svg>
